<svg width="22" height="17" viewBox="0 0 22 17" fill="none" xmlns="http://www.w3.org/2000/svg">
<path d="M18.2656 1.84375C18.2969 1.84375 18.3125 1.84375 18.3125 1.84375C19.5 3.59375 20.3594 5.46875 20.8906 7.46875C21.4531 9.4375 21.625 11.5469 21.4062 13.7969C21.4062 13.8281 21.3906 13.8438 21.3594 13.8438C20.4844 14.5 19.6094 15.0469 18.7344 15.4844C17.8594 15.8906 16.9844 16.2344 16.1094 16.5156C16.1094 16.5156 16.0938 16.5 16.0625 16.4688C15.6562 15.9062 15.2969 15.3281 14.9844 14.7344C14.9531 14.7031 14.9688 14.6719 15.0312 14.6406C15.3125 14.5469 15.5781 14.4375 15.8281 14.3125C16.1094 14.1875 16.3906 14.0469 16.6719 13.8906C16.7344 13.8594 16.7344 13.8125 16.6719 13.75C16.6094 13.7188 16.5469 13.6875 16.4844 13.6562C16.4219 13.5938 16.375 13.5469 16.3438 13.5156C16.3125 13.4844 16.2812 13.4844 16.25 13.5156C14.5625 14.2969 12.8125 14.6875 11 14.6875C9.1875 14.6875 7.42188 14.2969 5.70312 13.5156C5.67188 13.4844 5.65625 13.4844 5.65625 13.5156C5.59375 13.5469 5.53125 13.5938 5.46875 13.6562C5.40625 13.6875 5.35938 13.7188 5.32812 13.75C5.26562 13.8125 5.26562 13.8594 5.32812 13.8906C5.85938 14.1719 6.40625 14.4219 6.96875 14.6406C7 14.6719 7.01562 14.7031 7.01562 14.7344C6.70312 15.3281 6.34375 15.9062 5.9375 16.4688C5.90625 16.5 5.875 16.5156 5.84375 16.5156C5 16.2344 4.14062 15.8906 3.26562 15.4844C2.39062 15.0469 1.51562 14.5 0.640625 13.8438C0.609375 13.8438 0.59375 13.8281 0.59375 13.7969C0.40625 11.8281 0.53125 9.85938 0.96875 7.89062C1.4375 5.89062 2.34375 3.875 3.6875 1.84375C3.6875 1.84375 3.70312 1.84375 3.73438 1.84375C5.07812 1.21875 6.5 0.765625 8 0.484375C8.03125 0.484375 8.04688 0.5 8.04688 0.53125C8.26562 0.90625 8.45312 1.26563 8.60938 1.60938C10.2031 1.39062 11.7969 1.39062 13.3906 1.60938C13.5469 1.26563 13.7344 0.90625 13.9531 0.53125C13.9531 0.5 13.9688 0.484375 14 0.484375C15.5 0.765625 16.9219 1.21875 18.2656 1.84375ZM7.53125 11.4062C8.0625 11.4062 8.5 11.2031 8.84375 10.7969C9.21875 10.3906 9.40625 9.89062 9.40625 9.29688C9.40625 8.70312 9.21875 8.20312 8.84375 7.79688C8.5 7.39062 8.0625 7.1875 7.53125 7.1875C7 7.1875 6.54688 7.39062 6.17188 7.79688C5.79688 8.20312 5.60938 8.70312 5.60938 9.29688C5.60938 9.89062 5.79688 10.3906 6.17188 10.7969C6.54688 11.2031 7 11.4062 7.53125 11.4062ZM14.4688 11.4062C15 11.4062 15.4531 11.2031 15.8281 10.7969C16.2031 10.3906 16.3906 9.89062 16.3906 9.29688C16.3906 8.70312 16.2031 8.20312 15.8281 7.79688C15.4531 7.39062 15 7.1875 14.4688 7.1875C13.9688 7.1875 13.5312 7.39062 13.1562 7.79688C12.7812 8.20312 12.5938 8.70312 12.5938 9.29688C12.5938 9.89062 12.7812 10.3906 13.1562 10.7969C13.5312 11.2031 13.9688 11.4062 14.4688 11.4062Z" fill="#C9C9C9"/>
</svg>
