<svg width="13" height="10" viewBox="0 0 13 10" fill="none" xmlns="http://www.w3.org/2000/svg">
<path d="M11.5098 2.50977V1.25L6.5 4.38477L1.49023 1.25V2.50977L6.5 5.61523L11.5098 2.50977ZM11.5098 -0.00976562C11.8418 -0.00976562 12.125 0.117187 12.3594 0.371094C12.6133 0.625 12.7402 0.917969 12.7402 1.25V8.75C12.7402 9.08203 12.6133 9.375 12.3594 9.62891C12.125 9.88281 11.8418 10.0098 11.5098 10.0098H1.49023C1.1582 10.0098 0.865234 9.88281 0.611328 9.62891C0.376953 9.375 0.259766 9.08203 0.259766 8.75V1.25C0.259766 0.917969 0.376953 0.625 0.611328 0.371094C0.865234 0.117187 1.1582 -0.00976562 1.49023 -0.00976562H11.5098Z" fill="#DADADA"/>
</svg>
