<svg width="21" height="21" viewBox="0 0 21 21" fill="none" xmlns="http://www.w3.org/2000/svg">
<path d="M9.53917 0.874879C4.93917 1.37488 1.23917 5.07488 0.739169 9.57488C0.239169 14.2749 2.93917 18.4749 7.03917 20.0749C7.33917 20.1749 7.63917 19.9749 7.63917 19.5749V17.9749C7.63917 17.9749 7.23917 18.0749 6.73917 18.0749C5.33917 18.0749 4.73917 16.8749 4.63917 16.1749C4.53917 15.7749 4.33917 15.4749 4.03917 15.1749C3.73917 15.0749 3.63917 15.0749 3.63917 14.9749C3.63917 14.7749 3.93917 14.7749 4.03917 14.7749C4.63917 14.7749 5.13917 15.4749 5.33917 15.7749C5.83917 16.5749 6.43917 16.7749 6.73917 16.7749C7.13917 16.7749 7.43917 16.6749 7.63917 16.5749C7.73917 15.8749 8.03917 15.1749 8.63917 14.7749C6.33917 14.2749 4.63917 12.9749 4.63917 10.7749C4.63917 9.67488 5.13917 8.57488 5.83917 7.77488C5.73917 7.57488 5.63917 7.07488 5.63917 6.37488C5.63917 5.97488 5.63917 5.37488 5.93917 4.77488C5.93917 4.77488 7.33917 4.77488 8.73917 6.07488C9.23917 5.87488 9.93917 5.77488 10.6392 5.77488C11.3392 5.77488 12.0392 5.87488 12.6392 6.07488C13.9392 4.77488 15.4392 4.77488 15.4392 4.77488C15.6392 5.37488 15.6392 5.97488 15.6392 6.37488C15.6392 7.17488 15.5392 7.57488 15.4392 7.77488C16.1392 8.57488 16.6392 9.57488 16.6392 10.7749C16.6392 12.9749 14.9392 14.2749 12.6392 14.7749C13.2392 15.2749 13.6392 16.1749 13.6392 17.0749V19.6749C13.6392 19.9749 13.9392 20.2749 14.3392 20.1749C18.0392 18.6749 20.6392 15.0749 20.6392 10.8749C20.6392 4.87488 15.5392 0.174879 9.53917 0.874879Z" fill="#C9C9C9"/>
</svg>
