<svg width="19" height="19" viewBox="0 0 19 19" fill="none" xmlns="http://www.w3.org/2000/svg">
<path d="M5.32031 0.5C2.56331 0.5 0.320312 2.743 0.320312 5.5V13.5C0.320312 16.257 2.56331 18.5 5.32031 18.5H13.3203C16.0773 18.5 18.3203 16.257 18.3203 13.5V5.5C18.3203 2.743 16.0773 0.5 13.3203 0.5H5.32031ZM5.32031 2.5H13.3203C14.9743 2.5 16.3203 3.846 16.3203 5.5V13.5C16.3203 15.154 14.9743 16.5 13.3203 16.5H5.32031C3.66631 16.5 2.32031 15.154 2.32031 13.5V5.5C2.32031 3.846 3.66631 2.5 5.32031 2.5ZM14.3203 3.5C14.0551 3.5 13.8007 3.60536 13.6132 3.79289C13.4257 3.98043 13.3203 4.23478 13.3203 4.5C13.3203 4.76522 13.4257 5.01957 13.6132 5.20711C13.8007 5.39464 14.0551 5.5 14.3203 5.5C14.5855 5.5 14.8399 5.39464 15.0274 5.20711C15.215 5.01957 15.3203 4.76522 15.3203 4.5C15.3203 4.23478 15.215 3.98043 15.0274 3.79289C14.8399 3.60536 14.5855 3.5 14.3203 3.5ZM9.32031 4.5C6.56331 4.5 4.32031 6.743 4.32031 9.5C4.32031 12.257 6.56331 14.5 9.32031 14.5C12.0773 14.5 14.3203 12.257 14.3203 9.5C14.3203 6.743 12.0773 4.5 9.32031 4.5ZM9.32031 6.5C10.9743 6.5 12.3203 7.846 12.3203 9.5C12.3203 11.154 10.9743 12.5 9.32031 12.5C7.66631 12.5 6.32031 11.154 6.32031 9.5C6.32031 7.846 7.66631 6.5 9.32031 6.5Z" fill="#C9C9C9"/>
</svg>
