<svg width="13" height="14" viewBox="0 0 13 14" fill="none" xmlns="http://www.w3.org/2000/svg">
<path d="M10.8945 2.57617C11.4805 3.16211 11.9297 3.83594 12.2422 4.59766C12.5547 5.33984 12.7109 6.12109 12.7109 6.94141C12.7109 7.80078 12.5449 8.61133 12.2129 9.37305C11.9004 10.1152 11.4609 10.7695 10.8945 11.3359C10.3281 11.9023 9.67383 12.3516 8.93164 12.6836C8.18945 12.9961 7.38867 13.1523 6.5293 13.1523C5.47461 13.1523 4.48828 12.8984 3.57031 12.3906L0.289062 13.2402L1.16797 10.0469C0.601562 9.08984 0.318359 8.05469 0.318359 6.94141C0.318359 6.08203 0.474609 5.28125 0.787109 4.53906C1.11914 3.79688 1.56836 3.14258 2.13477 2.57617C2.7207 2.00977 3.38477 1.57031 4.12695 1.25781C4.86914 0.925781 5.66992 0.759766 6.5293 0.759766C7.34961 0.759766 8.13086 0.916016 8.87305 1.22852C9.63477 1.54102 10.3086 1.99023 10.8945 2.57617ZM6.5293 12.0977C7.23242 12.0977 7.89648 11.9707 8.52148 11.7168C9.14648 11.4434 9.69336 11.0723 10.1621 10.6035C10.6309 10.1152 10.9922 9.56836 11.2461 8.96289C11.5195 8.33789 11.6562 7.66406 11.6562 6.94141C11.6562 6.25781 11.5293 5.60352 11.2754 4.97852C11.0215 4.35352 10.6504 3.79688 10.1621 3.30859C9.67383 2.82031 9.11719 2.44922 8.49219 2.19531C7.86719 1.92188 7.21289 1.78516 6.5293 1.78516C5.80664 1.78516 5.13281 1.92188 4.50781 2.19531C3.90234 2.46875 3.35547 2.83984 2.86719 3.30859C2.39844 3.77734 2.02734 4.32422 1.75391 4.94922C1.5 5.57422 1.37305 6.23828 1.37305 6.94141C1.37305 7.9375 1.63672 8.85547 2.16406 9.69531L2.28125 9.87109L1.75391 11.7754L3.7168 11.248L3.89258 11.3652C4.71289 11.8535 5.5918 12.0977 6.5293 12.0977ZM9.3418 8.23047C9.41992 8.26953 9.47852 8.30859 9.51758 8.34766C9.57617 8.36719 9.61523 8.38672 9.63477 8.40625C9.6543 8.44531 9.66406 8.5332 9.66406 8.66992C9.66406 8.80664 9.625 8.97266 9.54688 9.16797C9.50781 9.28516 9.41992 9.40234 9.2832 9.51953C9.16602 9.61719 9.0293 9.70508 8.87305 9.7832C8.73633 9.8418 8.61914 9.88086 8.52148 9.90039C8.38477 9.91992 8.22852 9.92969 8.05273 9.92969C7.89648 9.92969 7.7207 9.90039 7.52539 9.8418C7.42773 9.80273 7.30078 9.76367 7.14453 9.72461C7.00781 9.66602 6.8418 9.59766 6.64648 9.51953C6.25586 9.34375 5.9043 9.12891 5.5918 8.875C5.2793 8.62109 5.00586 8.37695 4.77148 8.14258C4.55664 7.88867 4.38086 7.67383 4.24414 7.49805C4.10742 7.30273 4.0293 7.19531 4.00977 7.17578C3.99023 7.13672 3.92188 7.03906 3.80469 6.88281C3.70703 6.72656 3.60938 6.53125 3.51172 6.29688C3.43359 6.0625 3.39453 5.81836 3.39453 5.56445C3.39453 5.19336 3.46289 4.91016 3.59961 4.71484C3.73633 4.5 3.84375 4.35352 3.92188 4.27539C4 4.19727 4.06836 4.14844 4.12695 4.12891C4.20508 4.08984 4.27344 4.07031 4.33203 4.07031C4.39062 4.07031 4.43945 4.07031 4.47852 4.07031C4.53711 4.07031 4.58594 4.07031 4.625 4.07031C4.68359 4.08984 4.74219 4.10937 4.80078 4.12891C4.85938 4.12891 4.91797 4.20703 4.97656 4.36328C5.01562 4.46094 5.07422 4.59766 5.15234 4.77344C5.23047 4.94922 5.29883 5.11523 5.35742 5.27148C5.41602 5.4082 5.44531 5.48633 5.44531 5.50586C5.46484 5.54492 5.47461 5.58398 5.47461 5.62305C5.49414 5.66211 5.49414 5.71094 5.47461 5.76953C5.45508 5.82812 5.42578 5.87695 5.38672 5.91602C5.36719 5.93555 5.33789 5.97461 5.29883 6.0332C5.2793 6.07227 5.24023 6.12109 5.18164 6.17969C5.14258 6.21875 5.11328 6.25781 5.09375 6.29688C5.03516 6.33594 4.99609 6.38477 4.97656 6.44336C4.95703 6.48242 4.9668 6.54102 5.00586 6.61914C5.06445 6.69727 5.16211 6.84375 5.29883 7.05859C5.45508 7.27344 5.65039 7.47852 5.88477 7.67383C6.17773 7.94727 6.43164 8.14258 6.64648 8.25977C6.88086 8.35742 7.03711 8.42578 7.11523 8.46484C7.25195 8.54297 7.36914 8.52344 7.4668 8.40625C7.50586 8.36719 7.58398 8.2793 7.70117 8.14258C7.81836 8.00586 7.89648 7.89844 7.93555 7.82031C7.99414 7.74219 8.05273 7.70312 8.11133 7.70312C8.16992 7.70312 8.22852 7.71289 8.28711 7.73242C8.3457 7.75195 8.44336 7.80078 8.58008 7.87891C8.73633 7.95703 8.89258 8.03516 9.04883 8.11328C9.20508 8.17188 9.30273 8.21094 9.3418 8.23047Z" fill="#DADADA"/>
</svg>
