<svg width="249" height="42" viewBox="0 0 249 42" fill="none" xmlns="http://www.w3.org/2000/svg">
<path d="M10.2636 41.8333V38.0776H13.9858V41.8333H10.2636ZM6.54134 38.0776L6.54134 23.0546H10.2636V38.0776H6.54134ZM2.81912 23.0546L2.81912 19.2989H6.54134L6.54134 23.0546H2.81912ZM6.54134 19.2989L6.54134 4.25574H10.2636L10.2636 19.2989H6.54134ZM10.2636 4.25574V0.5L13.9858 0.5V4.25574L10.2636 4.25574Z" fill="#808080"/>
<path d="M21.4302 38.0776V34.3219H32.5969V38.0776H21.4302ZM32.5969 34.3219V30.5661H36.3391V34.3219H32.5969ZM17.708 34.3219L17.708 19.2989H21.4302L21.4302 34.3219H17.708ZM32.5969 23.0546V19.2989H36.3391V23.0546H32.5969ZM21.4302 19.2989V15.523H32.5969V19.2989L21.4302 19.2989Z" fill="#2DBA4F"/>
<path d="M43.8036 38.0776V34.3219H54.9702V38.0776H43.8036ZM40.0814 34.3219V19.2989H43.8036V34.3219H40.0814ZM54.9702 34.3219V19.2989H58.7125V34.3219H54.9702ZM43.8036 19.2989V15.523L54.9702 15.523V19.2989H43.8036Z" fill="#2DBA4F"/>
<path d="M62.4547 34.3219V19.2989H66.1769V34.3219H62.4547ZM66.1769 38.0776V34.3219H77.3436V19.2989H66.1769V15.523L77.3436 15.523V4.25574H81.0858V38.0776H66.1769Z" fill="#2DBA4F"/>
<path d="M88.5503 38.0776V34.3219H99.7169V38.0776H88.5503ZM99.7169 34.3219V30.5661H103.459V34.3219H99.7169ZM84.8281 34.3219V19.2989L88.5503 19.2989V23.0546H99.7169V19.2989H103.459V26.8104H88.5503V34.3219H84.8281ZM88.5503 19.2989V15.523H99.7169V19.2989H88.5503Z" fill="#2DBA4F"/>
<path d="M107.201 41.8333V38.0776H110.924V41.8333H107.201ZM110.924 38.0776V23.0546H114.646V38.0776H110.924ZM114.646 23.0546V19.2989H118.368V23.0546H114.646ZM110.924 19.2989V4.25574H114.646V19.2989H110.924ZM107.201 4.25574V0.5L110.924 0.5V4.25574H107.201Z" fill="#808080"/>
<path d="M136.979 38.0776V34.3219H140.701V38.0776H136.979ZM133.257 34.3219V8.01148H136.979V15.523H140.701V19.2989H136.979V34.3219H133.257Z" fill="#808080"/>
<path d="M144.424 38.0776V15.523H151.868V19.2989H148.146V38.0776H144.424Z" fill="#808080"/>
<path d="M159.312 38.0776V34.3219H170.479V38.0776H159.312ZM155.59 34.3219V19.2989H159.312V34.3219H155.59ZM170.479 34.3219V19.2989H174.221V34.3219H170.479ZM159.312 19.2989V15.523L170.479 15.523V19.2989H159.312Z" fill="#808080"/>
<path d="M181.686 38.0776V34.3219H189.13V38.0776H181.686ZM177.964 34.3219V15.523H181.686V34.3219H177.964ZM192.853 38.0776V34.3219H189.13V30.5661H192.853V15.523H196.595V38.0776H192.853Z" fill="#808080"/>
<path d="M215.226 34.3219V19.2989H218.968V34.3219H215.226ZM200.337 38.0776V4.25574H204.059V15.523H215.226V19.2989H204.059V34.3219H215.226V38.0776H200.337Z" fill="#808080"/>
<path d="M222.71 38.0776V4.25574H226.433V38.0776H222.71Z" fill="#808080"/>
<path d="M233.877 38.0776V34.3219H245.044V38.0776H233.877ZM245.044 34.3219V30.5661H248.786V34.3219H245.044ZM230.155 34.3219V19.2989H233.877V23.0546H245.044V19.2989H248.786V26.8104H233.877V34.3219H230.155ZM233.877 19.2989V15.523H245.044V19.2989H233.877Z" fill="#808080"/>
<path d="M19.5203 38.0776V34.3219H30.6869V38.0776H19.5203ZM30.6869 34.3219V30.5661H34.4292V34.3219H30.6869ZM15.7981 34.3219V19.2989H19.5203L19.5203 34.3219H15.7981ZM30.6869 23.0546V19.2989H34.4292V23.0546H30.6869ZM19.5203 19.2989V15.523H30.6869V19.2989L19.5203 19.2989Z" fill="#2DBA4F"/>
<path d="M41.8736 38.0776V34.3219H53.0403V38.0776H41.8736ZM38.1514 34.3219V19.2989H41.8736V34.3219H38.1514ZM53.0403 34.3219V19.2989H56.7825V34.3219H53.0403ZM41.8736 19.2989V15.523L53.0403 15.523V19.2989H41.8736Z" fill="#2DBA4F"/>
<path d="M60.5736 34.3219V19.2989H64.2958V34.3219H60.5736ZM64.2958 38.0776V34.3219H75.4625V19.2989H64.2958V15.523L75.4625 15.523V4.25574L79.2047 4.25574V38.0776H64.2958Z" fill="#2DBA4F"/>
<path d="M86.6491 38.0776V34.3219H97.8158V38.0776H86.6491ZM97.8158 34.3219V30.5661H101.558V34.3219H97.8158ZM82.9269 34.3219V19.2989H86.6491V23.0546L97.8158 23.0546V19.2989H101.558V26.8104L86.6491 26.8104V34.3219H82.9269ZM86.6491 19.2989V15.523H97.8158V19.2989L86.6491 19.2989Z" fill="#2DBA4F"/>
<path d="M105.248 41.8333V38.0776H108.97V41.8333H105.248ZM108.97 38.0776V23.0546H112.693V38.0776H108.97ZM112.693 23.0546V19.2989H116.415V23.0546H112.693ZM108.97 19.2989V4.25574H112.693V19.2989H108.97ZM105.248 4.25574V0.5L108.97 0.5V4.25574L105.248 4.25574Z" fill="#808080"/>
<path d="M8.40245 41.8333V38.0776H12.1247V41.8333H8.40245ZM4.68023 38.0776V23.0546H8.40245L8.40245 38.0776H4.68023ZM0.958008 23.0546L0.958008 19.2989H4.68023V23.0546H0.958008ZM4.68023 19.2989L4.68023 4.25574H8.40245V19.2989H4.68023ZM8.40245 4.25574V0.5L12.1247 0.5V4.25574L8.40245 4.25574Z" fill="#808080"/>
</svg>
