<svg width="43" height="42" viewBox="0 0 43 42" fill="none" xmlns="http://www.w3.org/2000/svg">
<rect x="1.44079" y="-1.44079" width="38.2369" height="38.2369" rx="19.1185" transform="matrix(-1 0 0 1 42.0593 3.32227)" fill="#FAFCFE" stroke="#15181B" stroke-width="2.88158"/>
<path d="M25.667 25.166L26.5003 24.3327L24.8337 22.666L26.5003 20.9994L24.8337 19.3327L14.8337 29.3327L13.167 27.666L23.167 17.666L21.5003 15.9993L19.8337 17.666L18.167 15.9993L17.3337 16.8327L15.667 15.166L18.167 12.666L19.8337 14.3327L21.5003 12.666L23.167 14.3327L24.8337 12.666L25.667 13.4993L26.5003 12.666L27.3337 13.4993L28.167 12.666L29.8337 14.3327L29.0003 15.166L29.8337 15.9994L29.0003 16.8327L29.8337 17.666L28.167 19.3327L29.8337 20.9994L28.167 22.666L29.8337 24.3327L27.3337 26.8327L25.667 25.166Z" fill="#15181B"/>
</svg>
