<svg width="31" height="33" viewBox="0 0 31 33" fill="none" xmlns="http://www.w3.org/2000/svg">
<path d="M23.9993 14.1667V27.5H22.3327V25.8333H20.666V24.1667H18.9993V22.5H17.3327V20.8333H10.666V22.5H8.99935V24.1667H7.33268V25.8333H5.66602V27.5H3.99935V7.5H5.66602V5.83333H15.666V2.5H2.33268V4.16667H0.666016V32.5H7.33268V30.8333H8.99935V29.1667H10.666V27.5H12.3327V25.8333H13.9993H15.666V27.5H17.3327V29.1667H18.9993V30.8333H20.666V32.5H27.3327V14.1667H23.9993Z" fill="#3348A4"/>
<path d="M27.3327 4.16634V0.833008H23.9993V4.16634H20.666V7.49967H23.9993V10.833H27.3327V7.49967H30.666V4.16634H27.3327Z" fill="#3348A4"/>
</svg>
