<svg width="34" height="35" viewBox="0 0 34 35" fill="none" xmlns="http://www.w3.org/2000/svg">
<path d="M20.5061 21.0358L21.2132 20.3287L19.799 18.9144L21.2132 17.5002L19.799 16.086L11.3137 24.5713L9.89948 23.1571L18.3848 14.6718L16.9706 13.2576L15.5563 14.6718L14.1421 13.2576L13.435 13.9647L12.0208 12.5505L14.1421 10.4292L15.5563 11.8434L16.9706 10.4292L18.3848 11.8434L19.799 10.4292L20.5061 11.1363L21.2132 10.4292L21.9203 11.1363L22.6274 10.4292L24.0416 11.8434L23.3345 12.5505L24.0416 13.2576L23.3345 13.9647L24.0416 14.6718L22.6274 16.086L24.0416 17.5002L22.6274 18.9144L24.0416 20.3287L21.9203 22.45L20.5061 21.0358Z" fill="#3348A4"/>
</svg>
