<svg width="16" height="16" viewBox="0 0 16 16" fill="none" xmlns="http://www.w3.org/2000/svg">
<path d="M13.2724 15.5327L0.46798 2.74597C-0.155993 2.12286 -0.155993 1.1126 0.46798 0.489495C1.09195 -0.133614 2.10361 -0.133614 2.72759 0.489495L15.532 13.2762C16.156 13.8993 16.156 14.9096 15.532 15.5327C14.908 16.1558 13.8964 16.1558 13.2724 15.5327Z" fill="#808080"/>
<path d="M13.2724 0.467331L0.46798 13.254C-0.155993 13.8771 -0.155993 14.8874 0.46798 15.5105C1.09195 16.1336 2.10361 16.1336 2.72759 15.5105L15.532 2.72381C16.156 2.1007 16.156 1.09044 15.532 0.467332C14.908 -0.155777 13.8964 -0.155778 13.2724 0.467331Z" fill="#808080"/>
</svg>
