<svg width="149" height="26" viewBox="0 0 149 26" fill="none" xmlns="http://www.w3.org/2000/svg">
<path d="M5.59472 25.4163V23.1599H7.83261V25.4163H5.59472ZM3.35683 23.1599L3.35683 14.134H5.59472L5.59472 23.1599H3.35683ZM1.11894 14.134L1.11894 11.8775H3.35683V14.134H1.11894ZM3.35683 11.8775L3.35683 2.83948L5.59472 2.83948L5.59472 11.8775H3.35683ZM5.59472 2.83948V0.583008L7.83261 0.583008V2.83948H5.59472Z" fill="#15181B"/>
<path d="M12.3084 23.1599V20.9034H19.022V23.1599H12.3084ZM19.022 20.9034V18.6469H21.272V20.9034H19.022ZM10.0705 20.9034L10.0705 11.8775H12.3084L12.3084 20.9034H10.0705ZM19.022 14.134V11.8775H21.272V14.134H19.022ZM12.3084 11.8775V9.6089L19.022 9.6089V11.8775L12.3084 11.8775Z" fill="#2DBA4F"/>
<path d="M25.7598 23.1599V20.9034L32.4734 20.9034V23.1599L25.7598 23.1599ZM23.5219 20.9034V11.8775H25.7598V20.9034H23.5219ZM32.4734 20.9034V11.8775H34.7234V20.9034H32.4734ZM25.7598 11.8775V9.6089H32.4734V11.8775H25.7598Z" fill="#2DBA4F"/>
<path d="M36.9733 20.9034V11.8775H39.2112V20.9034H36.9733ZM39.2112 23.1599V20.9034H45.9248V11.8775L39.2112 11.8775V9.6089L45.9248 9.6089V2.83948L48.1747 2.83948V23.1599H39.2112Z" fill="#2DBA4F"/>
<path d="M52.6625 23.1599V20.9034H59.3762V23.1599H52.6625ZM59.3762 20.9034V18.6469H61.6261V20.9034H59.3762ZM50.4247 20.9034V11.8775H52.6625V14.134H59.3762V11.8775H61.6261V16.3905H52.6625V20.9034H50.4247ZM52.6625 11.8775V9.6089H59.3762V11.8775H52.6625Z" fill="#2DBA4F"/>
<path d="M63.876 25.4163V23.1599H66.1139V25.4163H63.876ZM66.1139 23.1599V14.134H68.3518V23.1599H66.1139ZM68.3518 14.134V11.8775H70.5897V14.134H68.3518ZM66.1139 11.8775V2.83948H68.3518V11.8775H66.1139ZM63.876 2.83948V0.583008L66.1139 0.583008V2.83948H63.876Z" fill="#15181B"/>
<path d="M81.7791 23.1599V20.9034H84.017V23.1599H81.7791ZM79.5413 20.9034V5.09595L81.7791 5.09595V9.6089H84.017V11.8775H81.7791V20.9034H79.5413Z" fill="#15181B"/>
<path d="M86.2549 23.1599V9.6089H90.7307V11.8775H88.4928V23.1599L86.2549 23.1599Z" fill="#15181B"/>
<path d="M95.2065 23.1599V20.9034H101.92V23.1599H95.2065ZM92.9686 20.9034V11.8775H95.2065V20.9034H92.9686ZM101.92 20.9034V11.8775H104.17V20.9034H101.92ZM95.2065 11.8775V9.6089L101.92 9.6089V11.8775L95.2065 11.8775Z" fill="#15181B"/>
<path d="M108.658 23.1599V20.9034H113.134V23.1599H108.658ZM106.42 20.9034V9.6089H108.658V20.9034H106.42ZM115.372 23.1599V20.9034H113.134V18.6469H115.372V9.6089H117.621V23.1599H115.372Z" fill="#15181B"/>
<path d="M128.823 20.9034V11.8775L131.073 11.8775V20.9034H128.823ZM119.871 23.1599V2.83948H122.109V9.6089H128.823V11.8775H122.109V20.9034H128.823V23.1599H119.871Z" fill="#15181B"/>
<path d="M133.323 23.1599V2.83948L135.561 2.83948V23.1599H133.323Z" fill="#15181B"/>
<path d="M140.036 23.1599V20.9034L146.75 20.9034V23.1599L140.036 23.1599ZM146.75 20.9034V18.6469H149V20.9034H146.75ZM137.799 20.9034V11.8775H140.036V14.134H146.75V11.8775H149V16.3905H140.036V20.9034H137.799ZM140.036 11.8775V9.6089H146.75V11.8775H140.036Z" fill="#15181B"/>
<path d="M11.1601 23.1599V20.9034H17.8737V23.1599H11.1601ZM17.8737 20.9034V18.6469H20.1237V20.9034H17.8737ZM8.92219 20.9034L8.92219 11.8775H11.1601L11.1601 20.9034H8.92219ZM17.8737 14.134V11.8775H20.1237V14.134H17.8737ZM11.1601 11.8775V9.6089L17.8737 9.6089V11.8775L11.1601 11.8775Z" fill="#2DBA4F"/>
<path d="M24.5994 23.1599V20.9034L31.3131 20.9034V23.1599L24.5994 23.1599ZM22.3615 20.9034V11.8775H24.5994V20.9034H22.3615ZM31.3131 20.9034V11.8775H33.563V20.9034H31.3131ZM24.5994 11.8775V9.6089H31.3131V11.8775H24.5994Z" fill="#2DBA4F"/>
<path d="M35.8423 20.9034V11.8775H38.0802V20.9034H35.8423ZM38.0802 23.1599V20.9034H44.7938V11.8775L38.0802 11.8775V9.6089L44.7938 9.6089V2.83948H47.0438V23.1599H38.0802Z" fill="#2DBA4F"/>
<path d="M51.5195 23.1599V20.9034H58.2332V23.1599H51.5195ZM58.2332 20.9034V18.6469H60.4831V20.9034H58.2332ZM49.2817 20.9034V11.8775H51.5195V14.134H58.2332V11.8775H60.4831V16.3905H51.5195V20.9034H49.2817ZM51.5195 11.8775V9.6089H58.2332V11.8775H51.5195Z" fill="#2DBA4F"/>
<path d="M62.7018 25.4163V23.1599H64.9396V25.4163H62.7018ZM64.9396 23.1599V14.134H67.1775V23.1599H64.9396ZM67.1775 14.134V11.8775H69.4154V14.134H67.1775ZM64.9396 11.8775V2.83948H67.1775V11.8775H64.9396ZM62.7018 2.83948V0.583008L64.9396 0.583008V2.83948H62.7018Z" fill="#15181B"/>
<path d="M4.47578 25.4163V23.1599H6.71366V25.4163H4.47578ZM2.23789 23.1599L2.23789 14.134H4.47578L4.47578 23.1599H2.23789ZM0 14.134L0 11.8775H2.23789V14.134H0ZM2.23789 11.8775L2.23789 2.83948L4.47578 2.83948L4.47578 11.8775H2.23789ZM4.47578 2.83948V0.583008L6.71366 0.583008V2.83948H4.47578Z" fill="#15181B"/>
</svg>
