<svg width="18" height="20" viewBox="0 0 18 20" fill="none" xmlns="http://www.w3.org/2000/svg">
<path d="M16.0714 3.15789V2.10526H15V1.05263H13.9286V0H3.21429V1.05263H2.14286V2.10526H1.07143V3.15789H0V13.6842H1.07143V14.7368H2.14286V15.7895H3.21429V16.8421H11.7857V18.9474H12.8571V20H16.0714V17.8947H15V16.8421H13.9286V15.7895H15V14.7368H16.0714V13.6842H17.1429V3.15789H16.0714ZM15 11.5789H13.9286V12.6316H12.8571V13.6842H11.7857V14.7368H5.35714V13.6842H4.28571V12.6316H3.21429V11.5789H2.14286V5.26316H3.21429V4.21053H4.28571V3.15789H5.35714V2.10526H11.7857V3.15789H12.8571V4.21053H13.9286V5.26316H15V11.5789Z" fill="#323538"/>
</svg>
