<svg width="35" height="36" viewBox="0 0 35 36" fill="none" xmlns="http://www.w3.org/2000/svg">
<path d="M20.4163 29.667H14.583V32.5837H20.4163V29.667Z" fill="#15181B"/>
<path d="M29.1667 25.292V22.3753H27.7083V10.7087H26.25V9.25033H24.7917V7.79199H23.3333V6.33366H18.9583V3.41699H16.0417V6.33366H11.6667V7.79199H10.2083V9.25033H8.75V10.7087H7.29167V22.3753H5.83333V25.292H4.375V28.2087H30.625V25.292H29.1667ZM8.75 23.8337H10.2083V13.6253H11.6667V12.167H13.125V10.7087H14.5833V9.25033H20.4167V10.7087H21.875V12.167H23.3333V13.6253H24.7917V23.8337H26.25V25.292H8.75V23.8337Z" fill="#15181B"/>
</svg>
