<svg width="18" height="18" viewBox="0 0 18 18" fill="none" xmlns="http://www.w3.org/2000/svg">
<path d="M4.5 9H5.25V9.75H9.75V9H10.5V8.25H11.25V3.75H10.5V3H9.75V2.25H5.25V3H4.5V3.75H3.75V8.25H4.5V9ZM5.25 5.25H6V4.5H6.75V3.75H8.25V4.5H9V5.25H9.75V6.75H9V7.5H8.25V8.25H6.75V7.5H6V6.75H5.25V5.25Z" fill="#BA2D2F"/>
<path d="M12.75 11.25H12V10.5H3V11.25H2.25V12H1.5V15.75H3V13.5H3.75V12.75H4.5V12H10.5V12.75H11.25V13.5H12V15.75H13.5V12H12.75V11.25Z" fill="#BA2D2F"/>
<path d="M16.5 5.25H12V6.75H16.5V5.25Z" fill="#BA2D2F"/>
</svg>
