<svg width="47" height="36" viewBox="0 0 47 36" fill="none" xmlns="http://www.w3.org/2000/svg">
<path d="M8.01357 35.6383V32.4328H11.219V35.6383H8.01357ZM4.80814 32.4328L4.80814 19.6111H8.01357V32.4328H4.80814ZM1.60271 19.6111L1.60271 16.4057H4.80814V19.6111H1.60271ZM4.80814 16.4057L4.80814 3.56675H8.01357L8.01357 16.4057H4.80814ZM8.01357 3.56675V0.361328L11.219 0.361328V3.56675L8.01357 3.56675Z" fill="#15181B"/>
<path d="M19.2326 32.4328L19.2326 29.2274H28.8488L28.8488 32.4328H19.2326ZM28.8488 29.2274V26.022L32.0715 26.022V29.2274L28.8488 29.2274ZM16.0271 29.2274V16.4057H19.2326V29.2274H16.0271ZM28.8488 19.6111V16.4057L32.0715 16.4057V19.6111L28.8488 19.6111ZM19.2326 16.4057V13.183H28.8488V16.4057H19.2326Z" fill="#3348A4"/>
<path d="M36.7114 35.6383V32.4328H39.9169V35.6383H36.7114ZM39.9169 32.4328V19.6111H43.1223V32.4328H39.9169ZM43.1223 19.6111V16.4057H46.3277V19.6111H43.1223ZM39.9169 16.4057V3.56675H43.1223V16.4057H39.9169ZM36.7114 3.56675V0.361328L39.9169 0.361328V3.56675L36.7114 3.56675Z" fill="#15181B"/>
<path d="M17.5878 32.4328L17.5878 29.2274H27.2041L27.2041 32.4328H17.5878ZM27.2041 29.2274V26.022L30.4267 26.022V29.2274L27.2041 29.2274ZM14.3824 29.2274V16.4057H17.5878V29.2274H14.3824ZM27.2041 19.6111V16.4057L30.4267 16.4057V19.6111L27.2041 19.6111ZM17.5878 16.4057V13.183H27.2041V16.4057H17.5878Z" fill="#3348A4"/>
<path d="M35.0295 35.6383V32.4328H38.2349V35.6383H35.0295ZM38.2349 32.4328V19.6111H41.4403V32.4328H38.2349ZM41.4403 19.6111V16.4057H44.6457V19.6111H41.4403ZM38.2349 16.4057V3.56675L41.4403 3.56675V16.4057H38.2349ZM35.0295 3.56675V0.361328L38.2349 0.361328V3.56675H35.0295Z" fill="#15181B"/>
<path d="M6.41085 35.6383V32.4328H9.61628V35.6383H6.41085ZM3.20543 32.4328L3.20543 19.6111H6.41085L6.41085 32.4328H3.20543ZM0 19.6111L0 16.4057H3.20543L3.20543 19.6111H0ZM3.20543 16.4057L3.20543 3.56675L6.41085 3.56675L6.41085 16.4057H3.20543ZM6.41085 3.56675V0.361328L9.61628 0.361328V3.56675H6.41085Z" fill="#15181B"/>
</svg>
