<svg width="21" height="20" viewBox="0 0 21 20" fill="none" xmlns="http://www.w3.org/2000/svg">
<path d="M9.37305 4H5.37305V5H4.37305V9H5.37305V10H9.37305V9H10.373V5H9.37305V4ZM8.37305 8H6.37305V6H8.37305V8Z" fill="#FAFCFE"/>
<path d="M19.373 1V0H1.37305V1H0.373047V19H1.37305V20H19.373V19H20.373V1H19.373ZM18.373 12H17.373V11H16.373V10H15.373V9H12.373V10H11.373V11H10.373V12H9.37305V13H8.37305V14H7.37305V15H6.37305V16H5.37305V17H4.37305V18H3.37305V17H2.37305V3H3.37305V2H17.373V3H18.373V12ZM18.373 17H17.373V18H7.37305V17H8.37305V16H9.37305V15H10.373V14H11.373V13H12.373V12H13.373V11H14.373V12H15.373V13H16.373V14H17.373V15H18.373V17Z" fill="#FAFCFE"/>
</svg>
