<svg width="21" height="20" viewBox="0 0 21 20" fill="none" xmlns="http://www.w3.org/2000/svg">
<path fill-rule="evenodd" clip-rule="evenodd" d="M19.1855 0V1H20.1855V19H19.1855V20H1.18555V19H0.185547V1H1.18555V0H19.1855ZM3.18555 18H7.18555H17.1855V17H18.1855V12V3H17.1855V2H3.18555V3H2.18555V17H3.18555V18Z" fill="#FAFCFE"/>
<path d="M14.8522 9.33333V8.66667H14.1855V8H12.8522V6.66667H11.5189V5.33333H10.1855V4H6.18555V16H10.1855V14.6667H11.5189V13.3333H12.8522V12H14.1855V11.3333H14.8522V10.6667H15.5189V9.33333H14.8522ZM11.5189 10.6667V12H10.1855V13.3333H8.85221V14.6667H7.51888V14V5.33333H8.85221V6.66667H10.1855V8H11.5189V9.33333H12.1855H12.8522V10.6667H11.5189Z" fill="#FAFCFE"/>
<path d="M12.1855 10V9.33333H11.5189V8H10.1855V6.66667H8.85221V5.33333H7.51888V14H8.18555V13H9.18555V12H10.1855V11H11.1855V10H12.1855Z" fill="#FAFCFE"/>
<path d="M12.1855 10H11.1855V11H10.1855V12H11.5189V10.6667H12.8522V9.33333H12.1855V10Z" fill="#FAFCFE"/>
<path d="M10.1855 12H9.18555V13H8.18555V14H7.51888V14.6667H8.85221V13.3333H10.1855V12Z" fill="#FAFCFE"/>
</svg>
