<svg width="31" height="22" viewBox="0 0 31 22" fill="none" xmlns="http://www.w3.org/2000/svg">
<path d="M7.74378 0.5H30.7438L30.7398 5.5L7.73985 5.5L7.74378 0.5Z" fill="#FAFCFE"/>
<path d="M7.74378 8.5H30.7438L30.7398 13.5L7.73985 13.5L7.74378 8.5Z" fill="#FAFCFE"/>
<path d="M2.73763 5.4999L2.73785 1.1L2.81741 1.4999L1.69727 1.5H0.697266V0.5H1.19727H1.69727H2.73763H3.73741V4.4999L3.73719 5.4999H2.73763Z" fill="#FAFCFE"/>
<path d="M3.73918 13.5V12.5H1.69727L1.69749 11.5H0.697266V10.5H2.73918L1.69749 11.5L2.69509 10.5L2.73918 9.1L2.81874 9.4999L0.697266 9.5V8.5001L2.73896 8.5H3.73874V11.5H1.69749H0.697266V13.5H3.73918Z" fill="#FAFCFE"/>
<path d="M4.73785 5.49981L4.73874 4.49981L5.73808 4.4999L5.73741 5.49981H4.73785Z" fill="#FAFCFE"/>
<path d="M4.73719 13.5L4.73807 12.5L5.73741 12.5001L5.73675 13.5H4.73719Z" fill="#FAFCFE"/>
<path d="M7.69991 16.5H30.6999L30.696 21.5H7.69598L7.69991 16.5Z" fill="#FAFCFE"/>
<path d="M3.69531 21.5V20.5H3.69704L3.69727 19.5V18.5H2.69727V19.5H0.699219L0.697266 18.5H3.69727H2.69727L2.69531 17.1L2.77487 17.4999L0.697266 17.5V16.5001L2.69509 16.5H3.69487L3.69727 18.5H2.69727V19.5V20.5H0.697266V21.5H3.69531Z" fill="#FAFCFE"/>
<path d="M4.69332 21.5L4.69421 20.5L5.69354 20.5001L5.69288 21.5H4.69332Z" fill="#FAFCFE"/>
</svg>
