<svg width="57" height="47" viewBox="0 0 57 47" fill="none" xmlns="http://www.w3.org/2000/svg">
<path d="M9.74841 46.1225L9.74841 41.977H13.6478L13.6478 46.1225H9.74841ZM5.84905 41.977L5.84905 25.3951H9.74841V41.977H5.84905ZM1.94968 25.3951L1.94968 21.2496H5.84905L5.84905 25.3951H1.94968ZM5.84905 21.2496L5.84905 4.64547L9.74841 4.64547L9.74841 21.2496H5.84905ZM9.74841 4.64547V0.5L13.6478 0.5V4.64547H9.74841Z" fill="#2DBA4F"/>
<path d="M23.3962 41.977V37.8315H35.0943V41.977H23.3962ZM35.0943 37.8315V33.686H39.0146V37.8315H35.0943ZM19.4968 37.8315L19.4968 21.2496H23.3962L23.3962 37.8315H19.4968ZM35.0943 25.3951V21.2496H39.0146V25.3951H35.0943ZM23.3962 21.2496V17.0819L35.0943 17.0819V21.2496L23.3962 21.2496Z" fill="#2DBA4F"/>
<path d="M44.659 46.1225V41.977H48.5584V46.1225H44.659ZM48.5584 41.977V25.3951H52.4578V41.977H48.5584ZM52.4578 25.3951V21.2496H56.3571V25.3951H52.4578ZM48.5584 21.2496V4.64547L52.4578 4.64547V21.2496H48.5584ZM44.659 4.64547V0.5L48.5584 0.5V4.64547H44.659Z" fill="#2DBA4F"/>
<path d="M21.3954 41.977V37.8315H33.0934V41.977H21.3954ZM33.0934 37.8315V33.686H37.0138V37.8315H33.0934ZM17.496 37.8315L17.496 21.2496H21.3954L21.3954 37.8315H17.496ZM33.0934 25.3951V21.2496H37.0138V25.3951H33.0934ZM21.3954 21.2496V17.0819L33.0934 17.0819V21.2496L21.3954 21.2496Z" fill="#2DBA4F"/>
<path d="M42.6129 46.1225V41.977H46.5123V46.1225H42.6129ZM46.5123 41.977V25.3951H50.4117V41.977H46.5123ZM50.4117 25.3951V21.2496H54.311V25.3951H50.4117ZM46.5123 21.2496V4.64547H50.4117V21.2496H46.5123ZM42.6129 4.64547V0.5L46.5123 0.5V4.64547H42.6129Z" fill="#2DBA4F"/>
<path d="M7.79873 46.1225V41.977H11.6981L11.6981 46.1225H7.79873ZM3.89936 41.977L3.89936 25.3951H7.79873L7.79873 41.977H3.89936ZM0 25.3951L0 21.2496H3.89936V25.3951H0ZM3.89936 21.2496L3.89936 4.64547L7.79873 4.64547L7.79873 21.2496H3.89936ZM7.79873 4.64547V0.5L11.6981 0.5V4.64547H7.79873Z" fill="#2DBA4F"/>
</svg>
